<?xml version="1.0" encoding="UTF-8" standalone="no"?>
<!-- Created with Inkscape (http://www.inkscape.org/) -->

<svg
   width="1080"
   height="720"
   viewBox="0 0 285.75 190.49999"
   version="1.1"
   id="svg1"
   inkscape:version="1.4.4 (dcaf3e7d9e, 2026-05-05)"
   sodipodi:docname="dumb.svg"
   xml:space="preserve"
   xmlns:inkscape="http://www.inkscape.org/namespaces/inkscape"
   xmlns:sodipodi="http://sodipodi.sourceforge.net/DTD/sodipodi-0.dtd"
   xmlns:xlink="http://www.w3.org/1999/xlink"
   xmlns="http://www.w3.org/2000/svg"
   xmlns:svg="http://www.w3.org/2000/svg"><sodipodi:namedview
     id="namedview1"
     pagecolor="#ffffff"
     bordercolor="#000000"
     borderopacity="0.25"
     inkscape:showpageshadow="2"
     inkscape:pageopacity="0.0"
     inkscape:pagecheckerboard="true"
     inkscape:deskcolor="#d1d1d1"
     inkscape:document-units="mm"
     inkscape:zoom="0.77832211"
     inkscape:cx="723.3509"
     inkscape:cy="355.25137"
     inkscape:window-width="1922"
     inkscape:window-height="1002"
     inkscape:window-x="0"
     inkscape:window-y="0"
     inkscape:window-maximized="1"
     inkscape:current-layer="layer1"
     showguides="false" /><defs
     id="defs1"><inkscape:path-effect
       effect="fillet_chamfer"
       id="path-effect24"
       is_visible="true"
       lpeversion="1"
       nodesatellites_param="F,0,0,1,0,0,0,1 @ F,0,0,1,0,0,0,1 @ F,0,0,1,0,5.3538863,0,1 @ F,0,0,1,0,4.6571132,0,1 @ F,0,0,1,0,0,0,1 @ F,0,0,1,0,0,0,1 @ F,0,0,1,0,0,0,1 @ F,0,0,1,0,0,0,1 @ F,0,0,1,0,0,0,1 @ F,0,0,1,0,0,0,1 @ F,0,0,1,0,0,0,1 @ F,0,0,1,0,0,0,1"
       radius="0"
       unit="px"
       method="auto"
       mode="F"
       chamfer_steps="1"
       flexible="false"
       use_knot_distance="true"
       apply_no_radius="true"
       apply_with_radius="true"
       only_selected="false"
       hide_knots="false" /><linearGradient
       id="linearGradient5"
       inkscape:collect="always"><stop
         style="stop-color:#f502ff;stop-opacity:1;"
         offset="0"
         id="stop5" /><stop
         style="stop-color:#8500f5;stop-opacity:1;"
         offset="1"
         id="stop6" /></linearGradient><inkscape:path-effect
       effect="fillet_chamfer"
       id="path-effect5"
       is_visible="true"
       lpeversion="1"
       nodesatellites_param="F,0,0,1,0,0,0,1 @ F,0,0,1,0,0,0,1 @ F,0,0,1,0,0,0,1 @ F,0,0,1,0,0,0,1"
       radius="0"
       unit="px"
       method="auto"
       mode="F"
       chamfer_steps="1"
       flexible="false"
       use_knot_distance="true"
       apply_no_radius="true"
       apply_with_radius="true"
       only_selected="false"
       hide_knots="false" /><linearGradient
       inkscape:collect="always"
       xlink:href="#linearGradient5"
       id="linearGradient6"
       x1="84.613861"
       y1="61.140491"
       x2="132.49101"
       y2="137.75995"
       gradientUnits="userSpaceOnUse" /><clipPath
       clipPathUnits="userSpaceOnUse"
       id="clipPath26"><g
         inkscape:label="Clip"
         id="use26"
         transform="scale(2.0000001)"><rect
           style="fill:#83dbc1;fill-opacity:1;stroke-width:0.79375;stroke-linecap:round;paint-order:stroke fill markers"
           id="rect24"
           width="135.46666"
           height="135.46666"
           x="0"
           y="0" /></g></clipPath></defs><g
     inkscape:label="Layer 1"
     inkscape:groupmode="layer"
     id="layer1"><rect
       style="display:inline;fill:#ffdcc3;fill-opacity:1;stroke-width:0.79375;stroke-linecap:round;paint-order:stroke fill markers"
       id="rect1"
       width="285.75"
       height="190.5"
       x="0"
       y="0"
       ry="24.609713"
       sodipodi:insensitive="true" /><path
       style="fill:none;fill-opacity:1;stroke:#232434;stroke-width:2.64583333;stroke-linecap:round;stroke-dasharray:none;stroke-opacity:1;paint-order:stroke fill markers"
       d="m 168.14195,121.31067 c 0,0 -13.02737,-25.416247 3.99704,-22.640106 17.0244,2.776146 17.0244,-5.130356 17.0244,-5.130356"
       id="path15" /><g
       id="g7"
       transform="matrix(1,0.168,-0.4,0.56,87.696385,36.781456)"><rect
         style="display:inline;fill:#510075;fill-opacity:1;stroke-width:0.655814;stroke-linecap:round;paint-order:stroke fill markers"
         id="rect7"
         width="4.8906198"
         height="18.558533"
         x="19.15494"
         y="123.10054"
         transform="matrix(0.95782624,-0.28734791,0.37139068,0.9284767,-3.5873728e-7,1.7073236e-6)" /><rect
         style="fill:#510075;fill-opacity:1;stroke-width:1.00425;stroke-linecap:round;paint-order:stroke fill markers"
         id="rect8"
         width="6.2824421"
         height="17.651676"
         x="102.77769"
         y="130.43253"
         transform="matrix(0.95782625,-0.28734788,0.37139068,0.9284767,-3.5873728e-7,1.7073236e-6)" /><rect
         style="fill:#510075;fill-opacity:1;stroke-width:0.79375;stroke-linecap:round;paint-order:stroke fill markers"
         id="rect9"
         width="90.347977"
         height="33.711929"
         x="70.138824"
         y="99.495216"
         ry="11.462055" /><rect
         style="fill:url(#linearGradient6);fill-opacity:1;stroke-width:0.79375;stroke-linecap:round;paint-order:stroke fill markers"
         id="rect6"
         width="90.347977"
         height="33.711929"
         x="63.378437"
         y="82.594238"
         ry="11.462055"
         transform="translate(-3.5873728e-7)" /><text
         xml:space="preserve"
         style="font-style:italic;font-weight:900;font-size:14.1111px;line-height:9.67624px;font-family:'Google Sans Flex';-inkscape-font-specification:'Google Sans Flex Heavy Italic';text-align:center;letter-spacing:0px;word-spacing:0px;writing-mode:lr-tb;direction:ltr;text-anchor:middle;fill:#c1a8a3;fill-opacity:1;stroke-width:0.79375;stroke-linecap:round;paint-order:stroke fill markers"
         x="98.685646"
         y="99.663864"
         id="text2"><tspan
           sodipodi:role="line"
           id="tspan2"
           style="fill:#ffffff;fill-opacity:1;stroke-width:0.79375"
           x="98.685646"
           y="99.663864">DO THIS</tspan><tspan
           sodipodi:role="line"
           style="fill:#ffffff;fill-opacity:1;stroke-width:0.79375"
           x="98.685646"
           y="109.3401"
           id="tspan3">SH*T!</tspan></text><path
         d="m 105.01291,27.980771 c 0,8.657641 -7.018409,15.676046 -15.676054,15.676046 8.657645,0 15.676054,7.018405 15.676054,15.676046 0,-8.657636 7.0184,-15.676038 15.67604,-15.676046 -8.65764,-8e-6 -15.67604,-7.01841 -15.67604,-15.676046 z"
         style="fill:#ffffff;stroke-width:0.79375;stroke-linecap:round;paint-order:stroke fill markers"
         id="path5"
         inkscape:path-effect="#path-effect5"
         inkscape:original-d="M 105.01291,27.980771 A 15.676054,15.676048 0 0 1 89.336856,43.656817 15.676054,15.676048 0 0 1 105.01291,59.332863 15.676054,15.676048 0 0 1 120.68895,43.656817 15.676054,15.676048 0 0 1 105.01291,27.980771 Z"
         transform="matrix(0.62541763,0,0,0.62541763,73.292232,72.14646)" /></g><rect
       style="fill:#4d5179;fill-opacity:1;stroke:none;stroke-width:26.4583;stroke-linecap:round;stroke-dasharray:none;stroke-opacity:1;paint-order:stroke fill markers"
       id="rect10"
       width="57.827148"
       height="42.14521"
       x="189.16339"
       y="35.774422"
       ry="7.8880262" /><rect
       style="fill:#8588b2;fill-opacity:1;stroke:none;stroke-width:26.4583;stroke-linecap:round;stroke-dasharray:none;stroke-opacity:1;paint-order:stroke fill markers"
       id="rect11"
       width="57.827148"
       height="42.14521"
       x="189.16339"
       y="41.900181"
       ry="7.8880262" /><rect
       style="fill:#4d5179;fill-opacity:1;stroke:none;stroke-width:14.2654;stroke-linecap:round;stroke-dasharray:none;stroke-opacity:1;paint-order:stroke fill markers"
       id="rect13"
       width="57.827148"
       height="12.251519"
       x="189.16339"
       y="87.414452"
       ry="2.2930317" /><rect
       style="fill:#8588b2;fill-opacity:1;stroke:none;stroke-width:12.1652;stroke-linecap:round;stroke-dasharray:none;stroke-opacity:1;paint-order:stroke fill markers"
       id="rect15"
       width="22.753162"
       height="22.64381"
       x="206.70038"
       y="78.802902"
       ry="4.2380848" /><rect
       style="fill:#8588b2;fill-opacity:1;stroke:none;stroke-width:14.2654;stroke-linecap:round;stroke-dasharray:none;stroke-opacity:1;paint-order:stroke fill markers"
       id="rect14"
       width="57.827148"
       height="12.251519"
       x="189.16339"
       y="89.19519"
       ry="2.2930317" /><rect
       style="fill:#182a14;fill-opacity:1;stroke:none;stroke-width:24.2657;stroke-linecap:round;stroke-dasharray:none;stroke-opacity:1;paint-order:stroke fill markers"
       id="rect12"
       width="53.791264"
       height="38.109341"
       x="191.18134"
       y="43.918114"
       ry="7.1326609" /><g
       id="g21"
       transform="translate(43.419927,-0.28760097)"><path
         id="path16"
         style="fill:#f07542;stroke-width:1.09119;stroke-linecap:round;paint-order:stroke fill markers"
         inkscape:transform-center-x="0.009597234"
         inkscape:transform-center-y="-3.8292613"
         d="m 173.67472,48.628565 1.40234,3.018415 -0.13909,25.670027 -2.1423,-0.193138 -0.323,-25.482484 z"
         sodipodi:nodetypes="cccccc" /><path
         id="path17"
         style="fill:#f07542;stroke-width:1.09119;stroke-linecap:round;paint-order:stroke fill markers"
         inkscape:transform-center-x="-2.7851628"
         inkscape:transform-center-y="-1.9111638"
         d="m 185.78155,55.640796 -1.54617,2.947331 -20.47732,15.480582 -1.14773,-1.819198 20.04768,-15.733769 z"
         sodipodi:nodetypes="cccccc" /><path
         id="path18"
         style="fill:#f07542;stroke-width:1.09119;stroke-linecap:round;paint-order:stroke fill markers"
         inkscape:transform-center-x="3.8416722"
         inkscape:transform-center-y="0.3339567"
         d="m 157.36223,66.457802 2.84601,-1.72558 25.52981,-2.683019 0.0435,2.150547 -25.2926,3.121699 z"
         sodipodi:nodetypes="cccccc" /><path
         id="path19"
         style="fill:#f07542;stroke-width:1.09119;stroke-linecap:round;paint-order:stroke fill markers"
         inkscape:transform-center-x="2.2687601"
         inkscape:transform-center-y="-2.4582748"
         d="m 163.00139,53.653638 3.0994,1.212877 17.63736,18.651874 -1.68203,1.340715 -17.84179,-18.197009 z"
         sodipodi:nodetypes="cccccc" /><path
         id="path20"
         style="fill:#f07542;stroke-width:1.09119;stroke-linecap:round;paint-order:stroke fill markers"
         inkscape:transform-center-x="-3.5797549"
         inkscape:transform-center-y="0.7471892"
         d="m 188.31721,68.763335 -3.27208,0.608944 -24.83159,-6.508577 0.71902,-2.027255 24.76464,6.0144 z"
         sodipodi:nodetypes="cccccc" /><path
         id="path21"
         style="fill:#f07542;stroke-width:1.09119;stroke-linecap:round;paint-order:stroke fill markers"
         inkscape:transform-center-x="1.1794951"
         inkscape:transform-center-y="3.2398507"
         d="m 167.78795,78.191891 0.0207,-3.328197 11.08596,-23.153206 1.85475,1.089333 -10.58803,23.180895 z"
         sodipodi:nodetypes="cccccc" /></g><path
       style="fill:#031719;fill-opacity:1;stroke:none;stroke-width:2.64583;stroke-linecap:round;stroke-dasharray:none;stroke-opacity:1;paint-order:stroke fill markers"
       d="M 38.821355,84.513219 47.60873,68.66635 c 0,0 -0.161374,-0.169372 4.015049,5.463803 1.761068,2.375335 5.130949,2.884154 7.633456,1.309809 7.517977,-4.729615 12.65644,-5.770394 21.085159,-1.999756 2.347146,1.05001 5.523051,0.517245 7.212549,-1.422097 5.257913,-6.035454 5.580245,-6.296495 5.580245,-6.296495 0,0 0.671061,0.434156 7.773662,14.198559 7.29847,46.106007 3.05193,51.265637 -1.314359,61.260687 -11.902735,5.72439 -18.017791,0.59075 -18.017791,0.59075 0,0 -0.34201,-5.92548 -0.679064,-9.93476 -0.503203,-5.98562 -16.801552,-5.63334 -17.76658,0.29537 -1.075602,6.60803 1.385779,6.96283 -1.049017,11.707 -3.103235,6.04662 -17.790567,3.66688 -20.380782,-0.59074 C 27.817425,120.42719 38.821355,84.513219 38.821355,84.513219 Z"
       id="path22"
       sodipodi:nodetypes="ccccccccssssc"
       inkscape:path-effect="#path-effect24"
       inkscape:original-d="M 38.821355,84.513219 47.60873,68.66635 c 0,0 -0.235119,-0.246771 7.207125,9.762218 11.50034,-8.10433 16.85923,-9.967332 29.684958,-2.89464 8.195912,-9.457224 8.634375,-9.812314 8.634375,-9.812314 0,0 0.671061,0.434156 7.773662,14.198559 7.29847,46.106007 3.05193,51.265637 -1.314359,61.260687 -11.902735,5.72439 -18.017791,0.59075 -18.017791,0.59075 0,0 -0.34201,-5.92548 -0.679064,-9.93476 -0.503203,-5.98562 -16.801552,-5.63334 -17.76658,0.29537 -1.075602,6.60803 1.385779,6.96283 -1.049017,11.707 -3.103235,6.04662 -17.790567,3.66688 -20.380782,-0.59074 C 27.817425,120.42719 38.821355,84.513219 38.821355,84.513219 Z"
       transform="translate(-0.67988132,-9.5183385)" /><rect
       style="fill:#031719;fill-opacity:1;stroke:none;stroke-width:2.64583;stroke-linecap:round;stroke-dasharray:none;stroke-opacity:1;paint-order:stroke fill markers"
       id="rect22"
       width="49.53368"
       height="18.431137"
       x="-101.4528"
       y="65.128906"
       ry="6.1437125"
       transform="rotate(-63.956488)" /><rect
       style="fill:#031719;fill-opacity:1;stroke:none;stroke-width:2.64583;stroke-linecap:round;stroke-dasharray:none;stroke-opacity:1;paint-order:stroke fill markers"
       id="rect23"
       width="49.53368"
       height="18.431137"
       x="95"
       y="70"
       ry="6.1437125"
       transform="rotate(-44.917686)"
       inkscape:transform-center-x="-16.478699"
       inkscape:transform-center-y="-6.584255" 
                                           >
<animateTransform 
      attributeName="transform" 
      attributeType="XML"
      type="rotate"
      values="-20 95 70; 40 95 70; -20 95 70"
      dur="0.5s" 
      repeatCount="indefinite" 
    />
          
                                           </rect><g
       inkscape:label="Layer 1"
       id="layer1-2"
       transform="matrix(0.26232681,-0.02056187,-0.02056187,0.26232681,36.137932,40.270194)"><g
         id="g23"
         style="fill:#f7e6d8;fill-opacity:1"
         transform="matrix(2.0000001,0,0,2.0000001,2.3649423e-7,2.003974e-6)"><circle
           style="fill:#f7e6d8;fill-opacity:1;stroke-width:0.79375;stroke-linecap:round;paint-order:stroke fill markers"
           id="path1"
           cx="45.516907"
           cy="67.73333"
           r="6.2473116" /><path
           d="m 27.46499,49.841104 h -4.196126 l -8.234639,19.179708 h 4.425569 l 5.907133,-13.758333 5.907133,13.758333 h 4.425053 z"
           style="fill:#f7e6d8;fill-opacity:1;stroke-width:0.79375;stroke-linecap:round;paint-order:stroke fill markers"
           id="path4" /><path
           id="path9"
           style="fill:#f7e6d8;fill-opacity:1;stroke-width:0.70352;stroke-linecap:round;paint-order:stroke fill markers"
           d="m 67.733334,64.949226 c -0.320449,0 -0.628429,0.01938 -0.930176,0.04806 -5.215081,0.243206 -9.810252,2.476728 -9.669694,5.97638 l 5.16e-4,5.16e-4 c 0.06289,0.06201 -0.29587,1.091639 1.737879,3.536219 1.055658,1.268907 2.756005,2.918951 5.494755,5.01313 0,0 -0.917678,0.625128 -2.525427,0.743624 h -2.13062 -5.767089 v 4.677751 h 7.67395 0.223759 c 1.376121,-0.123397 3.503605,-1.389068 4.790405,-2.234489 0.356962,-0.211019 0.724441,-0.462929 1.101742,-0.75861 0,0 0.438044,0.322965 1.09864,0.75706 1.28655,0.845423 3.416516,2.112564 4.793506,2.236039 h 0.231511 7.666198 V 80.267154 H 75.755583 73.62548 c -1.607551,-0.118481 -2.525201,-0.74347 -2.525427,-0.743624 2.73875,-2.094179 4.439097,-3.744223 5.494755,-5.01313 2.025773,-2.434993 1.677972,-3.46637 1.737362,-3.535702 2.46e-4,-2.43e-4 8.07e-4,-8.53e-4 10e-4,-0.001 0.148603,-3.699939 -4.986765,-6.014029 -10.562146,-6.024439 -0.01256,-4.5e-5 -0.02513,0 -0.03772,0 z" /><circle
           style="fill:#f7e6d8;fill-opacity:1;stroke-width:0.79375;stroke-linecap:round;paint-order:stroke fill markers"
           id="circle23"
           cx="-89.94976"
           cy="67.73333"
           r="6.2473116"
           transform="scale(-1,1)" /><path
           d="m 108.00168,49.841104 h 4.19612 l 8.23464,19.179708 h -4.42557 l -5.90713,-13.758333 -5.90713,13.758333 h -4.425056 z"
           style="fill:#f7e6d8;fill-opacity:1;stroke-width:0.79375;stroke-linecap:round;paint-order:stroke fill markers"
           id="path23" /></g></g></g></svg>
